<svg width="600" height="677" viewBox="0 0 600 677" fill="none" xmlns="http://www.w3.org/2000/svg">
<g clip-path="url(#clip0)">
<path d="M0 259.8V0L225 129.9V216.5L75 129.9V303.1L0 259.8Z" fill="#00B0FF"/>
<path d="M225 129.9L450 0V259.8L300 346.4L225 303.1L375 216.5V129.9L225 216.5V129.9Z" fill="#0081CB"/>
<path d="M225 303.1V389.7L375 476.3V389.7L225 303.1Z" fill="#00B0FF"/>
<path d="M375 476.3L600 346.4V173.2L525 216.5V303.1L375 389.7V476.3ZM525 129.9V43.3L600 0V86.6L525 129.9Z" fill="#0081CB"/>
</g>
<path d="M34.4336 562.688L62.3242 632.297L90.2148 562.688H104.805V648H93.5547V614.777L94.6094 578.918L66.6016 648H57.9883L30.0391 579.094L31.1523 614.777V648H19.9023V562.688H34.4336ZM162.109 648C161.484 646.75 160.977 644.523 160.586 641.32C155.547 646.555 149.531 649.172 142.539 649.172C136.289 649.172 131.152 647.414 127.129 643.898C123.145 640.344 121.152 635.852 121.152 630.422C121.152 623.82 123.652 618.703 128.652 615.07C133.691 611.398 140.762 609.562 149.863 609.562H160.41V604.582C160.41 600.793 159.277 597.785 157.012 595.559C154.746 593.293 151.406 592.16 146.992 592.16C143.125 592.16 139.883 593.137 137.266 595.09C134.648 597.043 133.34 599.406 133.34 602.18H122.441C122.441 599.016 123.555 595.969 125.781 593.039C128.047 590.07 131.094 587.727 134.922 586.008C138.789 584.289 143.027 583.43 147.637 583.43C154.941 583.43 160.664 585.266 164.805 588.938C168.945 592.57 171.094 597.59 171.25 603.996V633.176C171.25 638.996 171.992 643.625 173.477 647.062V648H162.109ZM144.121 639.738C147.52 639.738 150.742 638.859 153.789 637.102C156.836 635.344 159.043 633.059 160.41 630.246V617.238H151.914C138.633 617.238 131.992 621.125 131.992 628.898C131.992 632.297 133.125 634.953 135.391 636.867C137.656 638.781 140.566 639.738 144.121 639.738ZM202.949 569.25V584.602H214.785V592.98H202.949V632.297C202.949 634.836 203.477 636.75 204.531 638.039C205.586 639.289 207.383 639.914 209.922 639.914C211.172 639.914 212.891 639.68 215.078 639.211V648C212.227 648.781 209.453 649.172 206.758 649.172C201.914 649.172 198.262 647.707 195.801 644.777C193.34 641.848 192.109 637.688 192.109 632.297V592.98H180.566V584.602H192.109V569.25H202.949ZM253.809 649.172C245.215 649.172 238.223 646.359 232.832 640.734C227.441 635.07 224.746 627.512 224.746 618.059V616.066C224.746 609.777 225.938 604.172 228.32 599.25C230.742 594.289 234.102 590.422 238.398 587.648C242.734 584.836 247.422 583.43 252.461 583.43C260.703 583.43 267.109 586.145 271.68 591.574C276.25 597.004 278.535 604.777 278.535 614.895V619.406H235.586C235.742 625.656 237.559 630.715 241.035 634.582C244.551 638.41 249.004 640.324 254.395 640.324C258.223 640.324 261.465 639.543 264.121 637.98C266.777 636.418 269.102 634.348 271.094 631.77L277.715 636.926C272.402 645.09 264.434 649.172 253.809 649.172ZM252.461 592.336C248.086 592.336 244.414 593.938 241.445 597.141C238.477 600.305 236.641 604.758 235.938 610.5H267.695V609.68C267.383 604.172 265.898 599.914 263.242 596.906C260.586 593.859 256.992 592.336 252.461 592.336ZM321.777 594.328C320.137 594.055 318.359 593.918 316.445 593.918C309.336 593.918 304.512 596.945 301.973 603V648H291.133V584.602H301.68L301.855 591.926C305.41 586.262 310.449 583.43 316.973 583.43C319.082 583.43 320.684 583.703 321.777 584.25V594.328ZM343.574 648H332.734V584.602H343.574V648ZM331.855 567.785C331.855 566.027 332.383 564.543 333.438 563.332C334.531 562.121 336.133 561.516 338.242 561.516C340.352 561.516 341.953 562.121 343.047 563.332C344.141 564.543 344.688 566.027 344.688 567.785C344.688 569.543 344.141 571.008 343.047 572.18C341.953 573.352 340.352 573.938 338.242 573.938C336.133 573.938 334.531 573.352 333.438 572.18C332.383 571.008 331.855 569.543 331.855 567.785ZM400.117 648C399.492 646.75 398.984 644.523 398.594 641.32C393.555 646.555 387.539 649.172 380.547 649.172C374.297 649.172 369.16 647.414 365.137 643.898C361.152 640.344 359.16 635.852 359.16 630.422C359.16 623.82 361.66 618.703 366.66 615.07C371.699 611.398 378.77 609.562 387.871 609.562H398.418V604.582C398.418 600.793 397.285 597.785 395.02 595.559C392.754 593.293 389.414 592.16 385 592.16C381.133 592.16 377.891 593.137 375.273 595.09C372.656 597.043 371.348 599.406 371.348 602.18H360.449C360.449 599.016 361.562 595.969 363.789 593.039C366.055 590.07 369.102 587.727 372.93 586.008C376.797 584.289 381.035 583.43 385.645 583.43C392.949 583.43 398.672 585.266 402.812 588.938C406.953 592.57 409.102 597.59 409.258 603.996V633.176C409.258 638.996 410 643.625 411.484 647.062V648H400.117ZM382.129 639.738C385.527 639.738 388.75 638.859 391.797 637.102C394.844 635.344 397.051 633.059 398.418 630.246V617.238H389.922C376.641 617.238 370 621.125 370 628.898C370 632.297 371.133 634.953 373.398 636.867C375.664 638.781 378.574 639.738 382.129 639.738ZM438.027 648H427.188V558H438.027V648ZM477.988 616.184H449.395V607.336H477.988V616.184ZM550.352 562.688V620.695C550.312 628.742 547.773 635.324 542.734 640.441C537.734 645.559 530.938 648.43 522.344 649.055L519.355 649.172C510.02 649.172 502.578 646.652 497.031 641.613C491.484 636.574 488.672 629.641 488.594 620.812V562.688H499.727V620.461C499.727 626.633 501.426 631.438 504.824 634.875C508.223 638.273 513.066 639.973 519.355 639.973C525.723 639.973 530.586 638.273 533.945 634.875C537.344 631.477 539.043 626.691 539.043 620.52V562.688H550.352ZM580.176 648H568.926V562.688H580.176V648Z" fill="black"/>
<defs>
<clipPath id="clip0">
<rect width="600" height="476.6" fill="white"/>
</clipPath>
</defs>
</svg>
