<svg width="372" height="407" viewBox="0 0 372 407" fill="none" xmlns="http://www.w3.org/2000/svg">
<path d="M239.381 169.733C248.828 168.755 255.995 160.611 255.669 150.837C255.344 141.064 247.199 133.245 237.426 133.245H236.775C226.676 133.571 218.857 142.041 219.183 152.14C219.509 157.027 221.464 161.262 224.395 164.194C213.319 186.022 196.379 201.985 170.969 215.342C153.703 224.464 135.786 227.722 117.868 225.442C103.209 223.487 91.8068 216.971 84.6398 206.22C74.2152 190.257 73.2379 172.991 82.0337 155.724C88.2233 143.344 97.9964 134.222 104.186 129.661C102.883 125.426 100.928 118.259 99.9511 113.047C52.7143 147.254 57.6009 193.515 71.9348 215.342C82.6852 231.631 104.512 241.731 128.619 241.731C135.134 241.731 141.65 241.079 148.165 239.45C189.864 231.306 221.464 206.546 239.381 169.733ZM296.717 129.336C271.958 100.341 235.472 84.3777 193.773 84.3777H188.561C185.629 78.5136 179.439 74.6042 172.598 74.6042H171.946C161.848 74.93 154.029 83.4004 154.355 93.4996C154.681 103.273 162.825 111.092 172.598 111.092H173.249C180.416 110.766 186.606 106.205 189.212 100.015H195.076C219.835 100.015 243.29 107.182 264.465 121.191C280.754 131.942 292.482 145.951 298.997 162.891C304.535 176.574 304.209 189.931 298.345 201.334C289.224 218.6 273.913 228.048 253.715 228.048C240.684 228.048 228.305 224.138 221.789 221.206C218.206 224.464 211.69 229.677 207.13 232.935C221.138 239.45 235.472 243.034 249.154 243.034C280.428 243.034 303.558 225.767 312.354 208.501C321.801 189.605 321.149 157.027 296.717 129.336ZM131.225 175.271C131.551 185.045 139.695 192.863 149.468 192.863H150.12C160.219 192.538 168.037 184.067 167.711 173.968C167.386 164.194 159.241 156.376 149.468 156.376H148.817C148.165 156.376 147.188 156.376 146.536 156.701C133.18 134.548 127.642 110.44 129.596 84.3777C130.899 64.8307 137.415 47.89 148.817 33.8814C158.264 21.8274 176.507 15.9633 188.886 15.6376C223.418 14.986 238.078 57.9893 239.055 75.2558C243.29 76.2331 250.457 78.5136 255.344 80.1425C251.434 27.3657 218.857 0 187.583 0C158.264 0 131.225 21.1759 120.475 52.451C105.489 94.1512 115.262 134.222 133.505 165.823C131.877 168.104 130.899 171.687 131.225 175.271Z" fill="#764ABC"/>
<path d="M41.5125 325.89C44.6175 325.89 47.25 325.507 49.41 324.742C51.615 323.932 53.415 322.83 54.81 321.435C56.205 320.04 57.2175 318.42 57.8475 316.575C58.4775 314.685 58.7925 312.66 58.7925 310.5C58.7925 306.18 57.375 302.805 54.54 300.375C51.75 297.945 47.4075 296.73 41.5125 296.73H32.3325V325.89H41.5125ZM89.9775 378H69.3225C65.4975 378 62.7525 376.56 61.0875 373.68L44.7525 345.127C43.9875 343.912 43.1325 343.035 42.1875 342.495C41.2425 341.91 39.8925 341.617 38.1375 341.617H32.3325V378H9.5175V279.652H41.5125C48.6225 279.652 54.675 280.395 59.67 281.88C64.71 283.32 68.805 285.345 71.955 287.955C75.15 290.565 77.4675 293.647 78.9075 297.202C80.3475 300.757 81.0675 304.627 81.0675 308.812C81.0675 312.007 80.64 315.022 79.785 317.857C78.93 320.692 77.67 323.325 76.005 325.755C74.34 328.14 72.27 330.277 69.795 332.167C67.365 334.057 64.5525 335.61 61.3575 336.825C62.8425 337.59 64.2375 338.557 65.5425 339.727C66.8475 340.852 68.0175 342.202 69.0525 343.777L89.9775 378ZM131.361 334.597C131.361 332.932 131.136 331.312 130.686 329.737C130.281 328.162 129.584 326.767 128.594 325.552C127.649 324.292 126.389 323.28 124.814 322.515C123.239 321.75 121.326 321.367 119.076 321.367C115.116 321.367 112.011 322.515 109.761 324.81C107.511 327.06 106.026 330.322 105.306 334.597H131.361ZM105.036 346.747C105.711 352.597 107.489 356.85 110.369 359.505C113.249 362.115 116.961 363.42 121.506 363.42C123.936 363.42 126.029 363.127 127.784 362.542C129.539 361.957 131.091 361.305 132.441 360.585C133.836 359.865 135.096 359.212 136.221 358.627C137.391 358.042 138.606 357.75 139.866 357.75C141.531 357.75 142.791 358.357 143.646 359.572L149.721 367.065C147.561 369.54 145.221 371.565 142.701 373.14C140.226 374.67 137.661 375.885 135.006 376.785C132.396 377.64 129.764 378.225 127.109 378.54C124.499 378.9 122.001 379.08 119.616 379.08C114.711 379.08 110.099 378.293 105.779 376.717C101.504 375.097 97.7463 372.712 94.5063 369.562C91.3113 366.412 88.7688 362.497 86.8788 357.817C85.0338 353.137 84.1113 347.692 84.1113 341.482C84.1113 336.802 84.8988 332.37 86.4738 328.185C88.0938 324 90.3888 320.332 93.3588 317.182C96.3738 314.032 99.9963 311.535 104.226 309.69C108.501 307.845 113.316 306.922 118.671 306.922C123.306 306.922 127.536 307.642 131.361 309.082C135.231 310.522 138.539 312.615 141.284 315.36C144.074 318.105 146.234 321.48 147.764 325.485C149.339 329.445 150.126 333.945 150.126 338.985C150.126 340.56 150.059 341.842 149.924 342.832C149.789 343.822 149.541 344.61 149.181 345.195C148.821 345.78 148.326 346.185 147.696 346.41C147.111 346.635 146.346 346.747 145.401 346.747H105.036ZM199.68 326.767C198.105 325.012 196.395 323.797 194.55 323.122C192.705 322.402 190.77 322.042 188.745 322.042C186.81 322.042 185.032 322.425 183.412 323.19C181.792 323.955 180.375 325.192 179.16 326.902C177.99 328.567 177.067 330.75 176.392 333.45C175.717 336.15 175.38 339.412 175.38 343.237C175.38 346.927 175.65 350.032 176.19 352.552C176.73 355.072 177.472 357.12 178.417 358.695C179.407 360.225 180.577 361.327 181.927 362.002C183.277 362.677 184.785 363.015 186.45 363.015C187.98 363.015 189.352 362.88 190.567 362.61C191.827 362.295 192.975 361.867 194.01 361.327C195.045 360.787 196.012 360.112 196.912 359.302C197.857 358.447 198.78 357.48 199.68 356.4V326.767ZM220.605 276.952V378H207.645C205.035 378 203.325 376.83 202.515 374.49L200.895 369.157C199.5 370.642 198.037 371.992 196.507 373.207C194.977 374.422 193.312 375.48 191.512 376.38C189.757 377.235 187.845 377.887 185.775 378.338C183.75 378.833 181.545 379.08 179.16 379.08C175.515 379.08 172.14 378.27 169.035 376.65C165.93 375.03 163.252 372.69 161.002 369.63C158.752 366.57 156.975 362.835 155.67 358.425C154.41 353.97 153.78 348.907 153.78 343.237C153.78 338.017 154.5 333.18 155.94 328.725C157.38 324.225 159.405 320.355 162.015 317.115C164.67 313.83 167.842 311.265 171.532 309.42C175.222 307.575 179.295 306.652 183.75 306.652C187.395 306.652 190.455 307.17 192.93 308.205C195.405 309.24 197.655 310.635 199.68 312.39V276.952H220.605ZM294.142 308.002V378H281.182C278.572 378 276.862 376.83 276.052 374.49L274.837 370.44C273.487 371.745 272.092 372.937 270.652 374.017C269.212 375.052 267.659 375.952 265.994 376.717C264.374 377.437 262.597 378 260.662 378.405C258.772 378.855 256.702 379.08 254.452 379.08C250.627 379.08 247.229 378.428 244.259 377.122C241.334 375.772 238.859 373.905 236.834 371.52C234.809 369.135 233.279 366.322 232.244 363.082C231.209 359.842 230.692 356.287 230.692 352.417V308.002H251.617V352.417C251.617 355.882 252.404 358.56 253.979 360.45C255.554 362.34 257.872 363.285 260.932 363.285C263.227 363.285 265.364 362.812 267.344 361.867C269.369 360.877 271.327 359.55 273.217 357.885V308.002H294.142ZM371.944 378H351.829C350.344 378 349.129 377.64 348.184 376.92C347.284 376.2 346.564 375.345 346.024 374.355L333.536 352.89C333.311 353.655 333.041 354.375 332.726 355.05C332.411 355.725 332.074 356.355 331.714 356.94L321.454 374.355C320.824 375.255 320.081 376.087 319.226 376.852C318.371 377.617 317.269 378 315.919 378H297.289L320.779 341.82L298.234 308.002H318.349C319.834 308.002 320.914 308.205 321.589 308.61C322.309 308.97 322.939 309.6 323.479 310.5L335.966 331.222C336.236 330.412 336.574 329.625 336.979 328.86C337.384 328.05 337.834 327.24 338.329 326.43L347.239 310.837C347.869 309.847 348.521 309.127 349.196 308.677C349.916 308.227 350.794 308.002 351.829 308.002H370.999L348.454 340.875L371.944 378Z" fill="black"/>
</svg>
